<svg width="142" height="56" viewBox="0 0 142 56" fill="none" xmlns="http://www.w3.org/2000/svg">
<g style="mix-blend-mode:luminosity" clip-path="url(#clip0_142_534)">
<path fill-rule="evenodd" clip-rule="evenodd" d="M21.6073 33.9848L21.6635 33.4766C22.2911 30.3127 20.8087 28.9568 16.1307 28.9568C11.6238 28.9568 9.62731 30.3127 9.05706 33.4766L8.94348 34.041C8.31585 37.2061 10.3697 38.6194 14.4188 38.6194C18.5839 38.6194 21.0932 36.6967 21.6073 33.9848ZM37.5216 31.6687L42.8845 1.60578C42.9324 1.3374 43.0731 1.09438 43.282 0.919275C43.4909 0.744166 43.7548 0.64812 44.0274 0.647949L50.2849 0.647949C50.4544 0.648116 50.6218 0.685374 50.7754 0.757109C50.929 0.828844 51.065 0.933318 51.1739 1.0632C51.2828 1.19308 51.3619 1.34522 51.4058 1.50894C51.4497 1.67266 51.4572 1.844 51.4278 2.01093L49.6725 11.9488C51.84 10.3668 54.2357 9.23685 58.6291 9.23685C67.1852 9.23685 70.5505 14.8867 69.3526 21.6102L67.3562 32.6851C65.93 40.7646 61.1958 44.6639 50.6421 44.6639C40.7171 44.6639 36.1528 39.1838 37.5216 31.6687ZM59.0284 31.3291L60.6256 22.458C61.252 18.9545 59.8832 16.5822 55.2626 16.5822C50.5859 16.5822 48.4173 18.9545 47.7896 22.458L46.1925 31.3291C45.5648 34.8326 46.9349 37.2061 51.6116 37.2061C56.2322 37.2061 58.4008 34.8326 59.0284 31.3291ZM104.492 29.2952H82.5305L82.0738 32.0071C81.5598 35.0024 82.4719 37.7143 87.9496 37.7143C92.6838 37.7143 94.9659 36.3583 95.4788 33.534C95.4946 33.454 95.5377 33.382 95.6007 33.3303C95.6637 33.2786 95.7427 33.2505 95.8242 33.2506H102.665C102.806 33.2507 102.946 33.2814 103.075 33.3404C103.203 33.3995 103.318 33.4856 103.41 33.5928C103.502 33.7001 103.57 33.826 103.609 33.9619C103.648 34.0979 103.658 34.2407 103.637 34.3806C102.439 41.048 97.7036 44.6639 87.2646 44.6639C76.9392 44.6639 72.4908 39.0702 73.8022 31.8947L75.6277 21.4416C77.1675 13.3047 81.9029 9.23685 92.4554 9.23685C102.61 9.23685 107.116 14.7169 105.804 22.0634L104.493 29.2952H104.492ZM83.8419 22.006L83.5574 23.7578H97.1907L97.5327 21.9498C98.1603 18.3339 96.6779 16.1864 91.7716 16.1864C86.6944 16.1864 84.4696 18.5599 83.8419 22.006ZM124.457 34.6066C129.135 34.6066 131.303 32.2331 131.93 28.8432L133.015 22.5716C133.641 19.1243 132.272 16.8082 127.652 16.8082C123.031 16.8082 120.864 19.1243 120.236 22.5716L119.153 28.8432C118.525 32.2331 119.837 34.6066 124.457 34.6066ZM128.45 9.23685C138.376 9.23685 143.054 14.8305 141.684 22.458L138.035 42.9121C136.321 52.2352 131.017 55.6825 121.72 55.6825H120.75C112.479 55.6825 107.116 51.5572 107.972 44.8336C108.004 44.6594 108.096 44.5019 108.232 44.3885C108.369 44.2752 108.54 44.2131 108.718 44.213H116.243C115.787 46.8114 117.669 48.6193 121.662 48.6193C126.74 48.6193 128.85 46.3032 129.42 43.0819L130.218 38.8442C128.052 40.5398 125.713 41.5 121.149 41.5C113.277 41.5 109.227 36.1323 110.538 28.7308L111.794 21.554C113.22 13.4745 117.954 9.23568 128.45 9.23568V9.23685ZM25.3812 5.10223C25.5578 5.10242 25.732 5.14285 25.8906 5.22045C26.0492 5.29806 26.188 5.4108 26.2965 5.55011C26.405 5.68941 26.4803 5.85161 26.5167 6.02438C26.5531 6.19716 26.5496 6.37595 26.5065 6.54718L25.6412 9.98274C30.8753 11.6806 33.4221 16.1162 32.4444 21.6102L30.3917 33.1371C29.1271 40.1897 25.0171 43.4707 18.6272 44.418L17.8661 47.4331C17.803 47.6841 17.6579 47.9068 17.4538 48.0658C17.2497 48.2249 16.9984 48.3113 16.7396 48.3114H9.906C9.72921 48.3114 9.55474 48.2711 9.39589 48.1935C9.23704 48.1159 9.098 48.0031 8.98936 47.8636C8.88072 47.7241 8.80535 47.5617 8.76899 47.3887C8.73263 47.2157 8.73624 47.0366 8.77954 46.8652L9.38727 44.4589C3.1145 43.4437 -0.403023 39.5632 0.327648 34.1546L0.442401 33.363C1.24099 27.2039 5.46225 23.588 15.331 23.588C19.0956 23.588 21.8906 24.1535 23.2033 24.8877L23.7161 21.8936C24.3438 18.6161 22.8614 16.4124 18.6389 16.4124C15.1027 16.4124 12.5359 17.5986 12.0231 20.5927H3.8077C4.78193 13.7345 8.52545 10.0272 16.5699 9.35043L17.4211 5.9781C17.4847 5.7276 17.63 5.50545 17.834 5.34681C18.038 5.18818 18.2891 5.10211 18.5476 5.10223H25.3801H25.3812Z" fill="#753FF6"/>
</g>
<defs>
<clipPath id="clip0_142_534">
<rect width="141.685" height="55.0345" fill="white" transform="translate(0.234375 0.647949)"/>
</clipPath>
</defs>
</svg>
