<svg width="1512" height="765" viewBox="0 0 1512 765" fill="none" xmlns="http://www.w3.org/2000/svg">
<mask id="mask0_130_61" style="mask-type:alpha" maskUnits="userSpaceOnUse" x="0" y="0" width="1512" height="765">
<rect width="1512" height="765" fill="#3B267D"/>
</mask>
<g mask="url(#mask0_130_61)">
<path d="M1529 -4.55664H0V769.557H1529V-4.55664Z" fill="#3B267D"/>
<g opacity="0.2">
<path d="M779.742 214.75C779.117 213.667 779.117 212.333 779.742 211.25L798.856 178.145C799.481 177.062 800.636 176.395 801.887 176.395L840.113 176.395C841.364 176.395 842.519 177.062 843.144 178.145L862.258 211.25C862.883 212.333 862.883 213.667 862.258 214.75L843.144 247.855C842.519 248.938 841.364 249.605 840.113 249.605L801.887 249.605C800.636 249.605 799.481 248.938 798.856 247.855L779.742 214.75Z" stroke="#5A43D2" stroke-width="3"/>
<path d="M847.742 253.75C847.117 252.667 847.117 251.333 847.742 250.25L866.856 217.145C867.481 216.062 868.636 215.395 869.887 215.395L908.113 215.395C909.364 215.395 910.519 216.062 911.144 217.145L930.258 250.25C930.883 251.333 930.883 252.667 930.258 253.75L911.144 286.855C910.519 287.938 909.364 288.605 908.113 288.605H869.887C868.636 288.605 867.481 287.938 866.856 286.855L847.742 253.75Z" stroke="#5A43D2" stroke-width="3"/>
<path d="M779.742 292.75C779.117 291.667 779.117 290.333 779.742 289.25L798.856 256.145C799.481 255.062 800.636 254.395 801.887 254.395L840.113 254.395C841.364 254.395 842.519 255.062 843.144 256.145L862.258 289.25C862.883 290.333 862.883 291.667 862.258 292.75L843.144 325.855C842.519 326.938 841.364 327.605 840.113 327.605H801.887C800.636 327.605 799.481 326.938 798.856 325.855L779.742 292.75Z" stroke="#5A43D2" stroke-width="3"/>
<path d="M847.742 331.75C847.117 330.667 847.117 329.333 847.742 328.25L866.856 295.145C867.481 294.062 868.636 293.395 869.887 293.395H908.113C909.364 293.395 910.519 294.062 911.144 295.145L930.258 328.25C930.883 329.333 930.883 330.667 930.258 331.75L911.144 364.855C910.519 365.938 909.364 366.605 908.113 366.605H869.887C868.636 366.605 867.481 365.938 866.856 364.855L847.742 331.75Z" stroke="#5A43D2" stroke-width="3"/>
<path d="M915.742 370.75C915.117 369.667 915.117 368.333 915.742 367.25L934.856 334.145C935.481 333.062 936.636 332.395 937.887 332.395H976.113C977.364 332.395 978.519 333.062 979.144 334.145L998.258 367.25C998.883 368.333 998.883 369.667 998.258 370.75L979.144 403.855C978.519 404.938 977.364 405.605 976.113 405.605H937.887C936.636 405.605 935.481 404.938 934.856 403.855L915.742 370.75Z" stroke="#5A43D2" stroke-width="3"/>
<path d="M847.742 409.75C847.117 408.667 847.117 407.333 847.742 406.25L866.856 373.145C867.481 372.062 868.636 371.395 869.887 371.395H908.113C909.364 371.395 910.519 372.062 911.144 373.145L930.258 406.25C930.883 407.333 930.883 408.667 930.258 409.75L911.144 442.855C910.519 443.938 909.364 444.605 908.113 444.605H869.887C868.636 444.605 867.481 443.938 866.856 442.855L847.742 409.75Z" stroke="#5A43D2" stroke-width="3"/>
<path d="M710.742 331.75C710.117 330.667 710.117 329.333 710.742 328.25L729.856 295.145C730.481 294.062 731.636 293.395 732.887 293.395H771.113C772.364 293.395 773.519 294.062 774.144 295.145L793.258 328.25C793.883 329.333 793.883 330.667 793.258 331.75L774.144 364.855C773.519 365.938 772.364 366.605 771.113 366.605H732.887C731.636 366.605 730.481 365.938 729.856 364.855L710.742 331.75Z" stroke="#5A43D2" stroke-width="3"/>
<path d="M778.742 370.75C778.117 369.667 778.117 368.333 778.742 367.25L797.856 334.145C798.481 333.062 799.636 332.395 800.887 332.395H839.113C840.364 332.395 841.519 333.062 842.144 334.145L861.258 367.25C861.883 368.333 861.883 369.667 861.258 370.75L842.144 403.855C841.519 404.938 840.364 405.605 839.113 405.605H800.887C799.636 405.605 798.481 404.938 797.856 403.855L778.742 370.75Z" stroke="#5A43D2" stroke-width="3"/>
<path d="M710.742 409.75C710.117 408.667 710.117 407.333 710.742 406.25L729.856 373.145C730.481 372.062 731.636 371.395 732.887 371.395H771.113C772.364 371.395 773.519 372.062 774.144 373.145L793.258 406.25C793.883 407.333 793.883 408.667 793.258 409.75L774.144 442.855C773.519 443.938 772.364 444.605 771.113 444.605H732.887C731.636 444.605 730.481 443.938 729.856 442.855L710.742 409.75Z" stroke="#5A43D2" stroke-width="3"/>
<path d="M916.742 214.75C916.117 213.667 916.117 212.333 916.742 211.25L935.856 178.145C936.481 177.062 937.636 176.395 938.887 176.395L977.113 176.395C978.364 176.395 979.519 177.062 980.144 178.145L999.258 211.25C999.883 212.333 999.883 213.667 999.258 214.75L980.144 247.855C979.519 248.938 978.364 249.605 977.113 249.605L938.887 249.605C937.636 249.605 936.481 248.938 935.856 247.855L916.742 214.75Z" stroke="#5A43D2" stroke-width="3"/>
<path d="M984.742 253.75C984.117 252.667 984.117 251.333 984.742 250.25L1003.86 217.145C1004.48 216.062 1005.64 215.395 1006.89 215.395L1045.11 215.395C1046.36 215.395 1047.52 216.062 1048.14 217.145L1067.26 250.25C1067.88 251.333 1067.88 252.667 1067.26 253.75L1048.14 286.855C1047.52 287.938 1046.36 288.605 1045.11 288.605H1006.89C1005.64 288.605 1004.48 287.938 1003.86 286.855L984.742 253.75Z" stroke="#5A43D2" stroke-width="3"/>
<path d="M916.742 292.75C916.117 291.667 916.117 290.333 916.742 289.25L935.856 256.145C936.481 255.062 937.636 254.395 938.887 254.395L977.113 254.395C978.364 254.395 979.519 255.062 980.144 256.145L999.258 289.25C999.883 290.333 999.883 291.667 999.258 292.75L980.144 325.855C979.519 326.938 978.364 327.605 977.113 327.605H938.887C937.636 327.605 936.481 326.938 935.856 325.855L916.742 292.75Z" stroke="#5A43D2" stroke-width="3"/>
<path d="M779.742 448.75C779.117 447.667 779.117 446.333 779.742 445.25L798.856 412.145C799.481 411.062 800.636 410.395 801.887 410.395H840.113C841.364 410.395 842.519 411.062 843.144 412.145L862.258 445.25C862.883 446.333 862.883 447.667 862.258 448.75L843.144 481.855C842.519 482.938 841.364 483.605 840.113 483.605H801.887C800.636 483.605 799.481 482.938 798.856 481.855L779.742 448.75Z" stroke="#5A43D2" stroke-width="3"/>
<path d="M847.742 487.75C847.117 486.667 847.117 485.333 847.742 484.25L866.856 451.145C867.481 450.062 868.636 449.395 869.887 449.395H908.113C909.364 449.395 910.519 450.062 911.144 451.145L930.258 484.25C930.883 485.333 930.883 486.667 930.258 487.75L911.144 520.855C910.519 521.938 909.364 522.605 908.113 522.605H869.887C868.636 522.605 867.481 521.938 866.856 520.855L847.742 487.75Z" stroke="#5A43D2" stroke-width="3"/>
<path d="M779.742 526.75C779.117 525.667 779.117 524.333 779.742 523.25L798.856 490.145C799.481 489.062 800.636 488.395 801.887 488.395H840.113C841.364 488.395 842.519 489.062 843.144 490.145L862.258 523.25C862.883 524.333 862.883 525.667 862.258 526.75L843.144 559.855C842.519 560.938 841.364 561.605 840.113 561.605H801.887C800.636 561.605 799.481 560.938 798.856 559.855L779.742 526.75Z" stroke="#5A43D2" stroke-width="3"/>
<path d="M643.742 449.75C643.117 448.667 643.117 447.333 643.742 446.25L662.856 413.145C663.481 412.062 664.636 411.395 665.887 411.395H704.113C705.364 411.395 706.519 412.062 707.144 413.145L726.258 446.25C726.883 447.333 726.883 448.667 726.258 449.75L707.144 482.855C706.519 483.938 705.364 484.605 704.113 484.605H665.887C664.636 484.605 663.481 483.938 662.856 482.855L643.742 449.75Z" stroke="#5A43D2" stroke-width="3"/>
<path d="M711.742 488.75C711.117 487.667 711.117 486.333 711.742 485.25L730.856 452.145C731.481 451.062 732.636 450.395 733.887 450.395H772.113C773.364 450.395 774.519 451.062 775.144 452.145L794.258 485.25C794.883 486.333 794.883 487.667 794.258 488.75L775.144 521.855C774.519 522.938 773.364 523.605 772.113 523.605H733.887C732.636 523.605 731.481 522.938 730.856 521.855L711.742 488.75Z" stroke="#5A43D2" stroke-width="3"/>
<path d="M643.742 527.75C643.117 526.667 643.117 525.333 643.742 524.25L662.856 491.145C663.481 490.062 664.636 489.395 665.887 489.395H704.113C705.364 489.395 706.519 490.062 707.144 491.145L726.258 524.25C726.883 525.333 726.883 526.667 726.258 527.75L707.144 560.855C706.519 561.938 705.364 562.605 704.113 562.605H665.887C664.636 562.605 663.481 561.938 662.856 560.855L643.742 527.75Z" stroke="#5A43D2" stroke-width="3"/>
</g>
<g opacity="0.2">
<path d="M1054.74 214.75C1054.12 213.667 1054.12 212.333 1054.74 211.25L1073.86 178.145C1074.48 177.062 1075.64 176.395 1076.89 176.395L1115.11 176.395C1116.36 176.395 1117.52 177.062 1118.14 178.145L1137.26 211.25C1137.88 212.333 1137.88 213.667 1137.26 214.75L1118.14 247.855C1117.52 248.938 1116.36 249.605 1115.11 249.605L1076.89 249.605C1075.64 249.605 1074.48 248.938 1073.86 247.855L1054.74 214.75Z" stroke="#5A43D2" stroke-width="3"/>
<path d="M1122.74 253.75C1122.12 252.667 1122.12 251.333 1122.74 250.25L1141.86 217.145C1142.48 216.062 1143.64 215.395 1144.89 215.395L1183.11 215.395C1184.36 215.395 1185.52 216.062 1186.14 217.145L1205.26 250.25C1205.88 251.333 1205.88 252.667 1205.26 253.75L1186.14 286.855C1185.52 287.938 1184.36 288.605 1183.11 288.605H1144.89C1143.64 288.605 1142.48 287.938 1141.86 286.855L1122.74 253.75Z" stroke="#5A43D2" stroke-width="3"/>
<path d="M1054.74 292.75C1054.12 291.667 1054.12 290.333 1054.74 289.25L1073.86 256.145C1074.48 255.062 1075.64 254.395 1076.89 254.395L1115.11 254.395C1116.36 254.395 1117.52 255.062 1118.14 256.145L1137.26 289.25C1137.88 290.333 1137.88 291.667 1137.26 292.75L1118.14 325.855C1117.52 326.938 1116.36 327.605 1115.11 327.605H1076.89C1075.64 327.605 1074.48 326.938 1073.86 325.855L1054.74 292.75Z" stroke="#5A43D2" stroke-width="3"/>
<path d="M1122.74 331.75C1122.12 330.667 1122.12 329.333 1122.74 328.25L1141.86 295.145C1142.48 294.062 1143.64 293.395 1144.89 293.395H1183.11C1184.36 293.395 1185.52 294.062 1186.14 295.145L1205.26 328.25C1205.88 329.333 1205.88 330.667 1205.26 331.75L1186.14 364.855C1185.52 365.938 1184.36 366.605 1183.11 366.605H1144.89C1143.64 366.605 1142.48 365.938 1141.86 364.855L1122.74 331.75Z" stroke="#5A43D2" stroke-width="3"/>
<path d="M1190.74 370.75C1190.12 369.667 1190.12 368.333 1190.74 367.25L1209.86 334.145C1210.48 333.062 1211.64 332.395 1212.89 332.395H1251.11C1252.36 332.395 1253.52 333.062 1254.14 334.145L1273.26 367.25C1273.88 368.333 1273.88 369.667 1273.26 370.75L1254.14 403.855C1253.52 404.938 1252.36 405.605 1251.11 405.605H1212.89C1211.64 405.605 1210.48 404.938 1209.86 403.855L1190.74 370.75Z" stroke="#5A43D2" stroke-width="3"/>
<path d="M1122.74 409.75C1122.12 408.667 1122.12 407.333 1122.74 406.25L1141.86 373.145C1142.48 372.062 1143.64 371.395 1144.89 371.395H1183.11C1184.36 371.395 1185.52 372.062 1186.14 373.145L1205.26 406.25C1205.88 407.333 1205.88 408.667 1205.26 409.75L1186.14 442.855C1185.52 443.938 1184.36 444.605 1183.11 444.605H1144.89C1143.64 444.605 1142.48 443.938 1141.86 442.855L1122.74 409.75Z" stroke="#5A43D2" stroke-width="3"/>
<path d="M985.742 331.75C985.117 330.667 985.117 329.333 985.742 328.25L1004.86 295.145C1005.48 294.062 1006.64 293.395 1007.89 293.395H1046.11C1047.36 293.395 1048.52 294.062 1049.14 295.145L1068.26 328.25C1068.88 329.333 1068.88 330.667 1068.26 331.75L1049.14 364.855C1048.52 365.938 1047.36 366.605 1046.11 366.605H1007.89C1006.64 366.605 1005.48 365.938 1004.86 364.855L985.742 331.75Z" stroke="#5A43D2" stroke-width="3"/>
<path d="M1053.74 370.75C1053.12 369.667 1053.12 368.333 1053.74 367.25L1072.86 334.145C1073.48 333.062 1074.64 332.395 1075.89 332.395H1114.11C1115.36 332.395 1116.52 333.062 1117.14 334.145L1136.26 367.25C1136.88 368.333 1136.88 369.667 1136.26 370.75L1117.14 403.855C1116.52 404.938 1115.36 405.605 1114.11 405.605H1075.89C1074.64 405.605 1073.48 404.938 1072.86 403.855L1053.74 370.75Z" stroke="#5A43D2" stroke-width="3"/>
<path d="M985.742 409.75C985.117 408.667 985.117 407.333 985.742 406.25L1004.86 373.145C1005.48 372.062 1006.64 371.395 1007.89 371.395H1046.11C1047.36 371.395 1048.52 372.062 1049.14 373.145L1068.26 406.25C1068.88 407.333 1068.88 408.667 1068.26 409.75L1049.14 442.855C1048.52 443.938 1047.36 444.605 1046.11 444.605H1007.89C1006.64 444.605 1005.48 443.938 1004.86 442.855L985.742 409.75Z" stroke="#5A43D2" stroke-width="3"/>
<path d="M1191.74 214.75C1191.12 213.667 1191.12 212.333 1191.74 211.25L1210.86 178.145C1211.48 177.062 1212.64 176.395 1213.89 176.395L1252.11 176.395C1253.36 176.395 1254.52 177.062 1255.14 178.145L1274.26 211.25C1274.88 212.333 1274.88 213.667 1274.26 214.75L1255.14 247.855C1254.52 248.938 1253.36 249.605 1252.11 249.605L1213.89 249.605C1212.64 249.605 1211.48 248.938 1210.86 247.855L1191.74 214.75Z" stroke="#5A43D2" stroke-width="3"/>
<path d="M1259.74 253.75C1259.12 252.667 1259.12 251.333 1259.74 250.25L1278.86 217.145C1279.48 216.062 1280.64 215.395 1281.89 215.395L1320.11 215.395C1321.36 215.395 1322.52 216.062 1323.14 217.145L1342.26 250.25C1342.88 251.333 1342.88 252.667 1342.26 253.75L1323.14 286.855C1322.52 287.938 1321.36 288.605 1320.11 288.605H1281.89C1280.64 288.605 1279.48 287.938 1278.86 286.855L1259.74 253.75Z" stroke="#5A43D2" stroke-width="3"/>
<path d="M1191.74 292.75C1191.12 291.667 1191.12 290.333 1191.74 289.25L1210.86 256.145C1211.48 255.062 1212.64 254.395 1213.89 254.395L1252.11 254.395C1253.36 254.395 1254.52 255.062 1255.14 256.145L1274.26 289.25C1274.88 290.333 1274.88 291.667 1274.26 292.75L1255.14 325.855C1254.52 326.938 1253.36 327.605 1252.11 327.605H1213.89C1212.64 327.605 1211.48 326.938 1210.86 325.855L1191.74 292.75Z" stroke="#5A43D2" stroke-width="3"/>
<path d="M1054.74 448.75C1054.12 447.667 1054.12 446.333 1054.74 445.25L1073.86 412.145C1074.48 411.062 1075.64 410.395 1076.89 410.395H1115.11C1116.36 410.395 1117.52 411.062 1118.14 412.145L1137.26 445.25C1137.88 446.333 1137.88 447.667 1137.26 448.75L1118.14 481.855C1117.52 482.938 1116.36 483.605 1115.11 483.605H1076.89C1075.64 483.605 1074.48 482.938 1073.86 481.855L1054.74 448.75Z" stroke="#5A43D2" stroke-width="3"/>
<path d="M1122.74 487.75C1122.12 486.667 1122.12 485.333 1122.74 484.25L1141.86 451.145C1142.48 450.062 1143.64 449.395 1144.89 449.395H1183.11C1184.36 449.395 1185.52 450.062 1186.14 451.145L1205.26 484.25C1205.88 485.333 1205.88 486.667 1205.26 487.75L1186.14 520.855C1185.52 521.938 1184.36 522.605 1183.11 522.605H1144.89C1143.64 522.605 1142.48 521.938 1141.86 520.855L1122.74 487.75Z" stroke="#5A43D2" stroke-width="3"/>
<path d="M1054.74 526.75C1054.12 525.667 1054.12 524.333 1054.74 523.25L1073.86 490.145C1074.48 489.062 1075.64 488.395 1076.89 488.395H1115.11C1116.36 488.395 1117.52 489.062 1118.14 490.145L1137.26 523.25C1137.88 524.333 1137.88 525.667 1137.26 526.75L1118.14 559.855C1117.52 560.938 1116.36 561.605 1115.11 561.605H1076.89C1075.64 561.605 1074.48 560.938 1073.86 559.855L1054.74 526.75Z" stroke="#5A43D2" stroke-width="3"/>
<path d="M918.742 449.75C918.117 448.667 918.117 447.333 918.742 446.25L937.856 413.145C938.481 412.062 939.636 411.395 940.887 411.395H979.113C980.364 411.395 981.519 412.062 982.144 413.145L1001.26 446.25C1001.88 447.333 1001.88 448.667 1001.26 449.75L982.144 482.855C981.519 483.938 980.364 484.605 979.113 484.605H940.887C939.636 484.605 938.481 483.938 937.856 482.855L918.742 449.75Z" stroke="#5A43D2" stroke-width="3"/>
<path d="M986.742 488.75C986.117 487.667 986.117 486.333 986.742 485.25L1005.86 452.145C1006.48 451.062 1007.64 450.395 1008.89 450.395H1047.11C1048.36 450.395 1049.52 451.062 1050.14 452.145L1069.26 485.25C1069.88 486.333 1069.88 487.667 1069.26 488.75L1050.14 521.855C1049.52 522.938 1048.36 523.605 1047.11 523.605H1008.89C1007.64 523.605 1006.48 522.938 1005.86 521.855L986.742 488.75Z" stroke="#5A43D2" stroke-width="3"/>
<path d="M918.742 527.75C918.117 526.667 918.117 525.333 918.742 524.25L937.856 491.145C938.481 490.062 939.636 489.395 940.887 489.395H979.113C980.364 489.395 981.519 490.062 982.144 491.145L1001.26 524.25C1001.88 525.333 1001.88 526.667 1001.26 527.75L982.144 560.855C981.519 561.938 980.364 562.605 979.113 562.605H940.887C939.636 562.605 938.481 561.938 937.856 560.855L918.742 527.75Z" stroke="#5A43D2" stroke-width="3"/>
</g>
<g opacity="0.2">
<path d="M1328.74 214.75C1328.12 213.667 1328.12 212.333 1328.74 211.25L1347.86 178.145C1348.48 177.062 1349.64 176.395 1350.89 176.395L1389.11 176.395C1390.36 176.395 1391.52 177.062 1392.14 178.145L1411.26 211.25C1411.88 212.333 1411.88 213.667 1411.26 214.75L1392.14 247.855C1391.52 248.938 1390.36 249.605 1389.11 249.605L1350.89 249.605C1349.64 249.605 1348.48 248.938 1347.86 247.855L1328.74 214.75Z" stroke="#5A43D2" stroke-width="3"/>
<path d="M1396.74 253.75C1396.12 252.667 1396.12 251.333 1396.74 250.25L1415.86 217.145C1416.48 216.062 1417.64 215.395 1418.89 215.395L1457.11 215.395C1458.36 215.395 1459.52 216.062 1460.14 217.145L1479.26 250.25C1479.88 251.333 1479.88 252.667 1479.26 253.75L1460.14 286.855C1459.52 287.938 1458.36 288.605 1457.11 288.605H1418.89C1417.64 288.605 1416.48 287.938 1415.86 286.855L1396.74 253.75Z" stroke="#5A43D2" stroke-width="3"/>
<path d="M1328.74 292.75C1328.12 291.667 1328.12 290.333 1328.74 289.25L1347.86 256.145C1348.48 255.062 1349.64 254.395 1350.89 254.395L1389.11 254.395C1390.36 254.395 1391.52 255.062 1392.14 256.145L1411.26 289.25C1411.88 290.333 1411.88 291.667 1411.26 292.75L1392.14 325.855C1391.52 326.938 1390.36 327.605 1389.11 327.605H1350.89C1349.64 327.605 1348.48 326.938 1347.86 325.855L1328.74 292.75Z" stroke="#5A43D2" stroke-width="3"/>
<path d="M1396.74 331.75C1396.12 330.667 1396.12 329.333 1396.74 328.25L1415.86 295.145C1416.48 294.062 1417.64 293.395 1418.89 293.395H1457.11C1458.36 293.395 1459.52 294.062 1460.14 295.145L1479.26 328.25C1479.88 329.333 1479.88 330.667 1479.26 331.75L1460.14 364.855C1459.52 365.938 1458.36 366.605 1457.11 366.605H1418.89C1417.64 366.605 1416.48 365.938 1415.86 364.855L1396.74 331.75Z" stroke="#5A43D2" stroke-width="3"/>
<path d="M1464.74 370.75C1464.12 369.667 1464.12 368.333 1464.74 367.25L1483.86 334.145C1484.48 333.062 1485.64 332.395 1486.89 332.395H1525.11C1526.36 332.395 1527.52 333.062 1528.14 334.145L1547.26 367.25C1547.88 368.333 1547.88 369.667 1547.26 370.75L1528.14 403.855C1527.52 404.938 1526.36 405.605 1525.11 405.605H1486.89C1485.64 405.605 1484.48 404.938 1483.86 403.855L1464.74 370.75Z" stroke="#5A43D2" stroke-width="3"/>
<path d="M1396.74 409.75C1396.12 408.667 1396.12 407.333 1396.74 406.25L1415.86 373.145C1416.48 372.062 1417.64 371.395 1418.89 371.395H1457.11C1458.36 371.395 1459.52 372.062 1460.14 373.145L1479.26 406.25C1479.88 407.333 1479.88 408.667 1479.26 409.75L1460.14 442.855C1459.52 443.938 1458.36 444.605 1457.11 444.605H1418.89C1417.64 444.605 1416.48 443.938 1415.86 442.855L1396.74 409.75Z" stroke="#5A43D2" stroke-width="3"/>
<path d="M1259.74 331.75C1259.12 330.667 1259.12 329.333 1259.74 328.25L1278.86 295.145C1279.48 294.062 1280.64 293.395 1281.89 293.395H1320.11C1321.36 293.395 1322.52 294.062 1323.14 295.145L1342.26 328.25C1342.88 329.333 1342.88 330.667 1342.26 331.75L1323.14 364.855C1322.52 365.938 1321.36 366.605 1320.11 366.605H1281.89C1280.64 366.605 1279.48 365.938 1278.86 364.855L1259.74 331.75Z" stroke="#5A43D2" stroke-width="3"/>
<path d="M1327.74 370.75C1327.12 369.667 1327.12 368.333 1327.74 367.25L1346.86 334.145C1347.48 333.062 1348.64 332.395 1349.89 332.395H1388.11C1389.36 332.395 1390.52 333.062 1391.14 334.145L1410.26 367.25C1410.88 368.333 1410.88 369.667 1410.26 370.75L1391.14 403.855C1390.52 404.938 1389.36 405.605 1388.11 405.605H1349.89C1348.64 405.605 1347.48 404.938 1346.86 403.855L1327.74 370.75Z" stroke="#5A43D2" stroke-width="3"/>
<path d="M1259.74 409.75C1259.12 408.667 1259.12 407.333 1259.74 406.25L1278.86 373.145C1279.48 372.062 1280.64 371.395 1281.89 371.395H1320.11C1321.36 371.395 1322.52 372.062 1323.14 373.145L1342.26 406.25C1342.88 407.333 1342.88 408.667 1342.26 409.75L1323.14 442.855C1322.52 443.938 1321.36 444.605 1320.11 444.605H1281.89C1280.64 444.605 1279.48 443.938 1278.86 442.855L1259.74 409.75Z" stroke="#5A43D2" stroke-width="3"/>
<path d="M1465.74 214.75C1465.12 213.667 1465.12 212.333 1465.74 211.25L1484.86 178.145C1485.48 177.062 1486.64 176.395 1487.89 176.395L1526.11 176.395C1527.36 176.395 1528.52 177.062 1529.14 178.145L1548.26 211.25C1548.88 212.333 1548.88 213.667 1548.26 214.75L1529.14 247.855C1528.52 248.938 1527.36 249.605 1526.11 249.605L1487.89 249.605C1486.64 249.605 1485.48 248.938 1484.86 247.855L1465.74 214.75Z" stroke="#5A43D2" stroke-width="3"/>
<path d="M1465.74 292.75C1465.12 291.667 1465.12 290.333 1465.74 289.25L1484.86 256.145C1485.48 255.062 1486.64 254.395 1487.89 254.395L1526.11 254.395C1527.36 254.395 1528.52 255.062 1529.14 256.145L1548.26 289.25C1548.88 290.333 1548.88 291.667 1548.26 292.75L1529.14 325.855C1528.52 326.938 1527.36 327.605 1526.11 327.605H1487.89C1486.64 327.605 1485.48 326.938 1484.86 325.855L1465.74 292.75Z" stroke="#5A43D2" stroke-width="3"/>
<path d="M1328.74 448.75C1328.12 447.667 1328.12 446.333 1328.74 445.25L1347.86 412.145C1348.48 411.062 1349.64 410.395 1350.89 410.395H1389.11C1390.36 410.395 1391.52 411.062 1392.14 412.145L1411.26 445.25C1411.88 446.333 1411.88 447.667 1411.26 448.75L1392.14 481.855C1391.52 482.938 1390.36 483.605 1389.11 483.605H1350.89C1349.64 483.605 1348.48 482.938 1347.86 481.855L1328.74 448.75Z" stroke="#5A43D2" stroke-width="3"/>
<path d="M1396.74 487.75C1396.12 486.667 1396.12 485.333 1396.74 484.25L1415.86 451.145C1416.48 450.062 1417.64 449.395 1418.89 449.395H1457.11C1458.36 449.395 1459.52 450.062 1460.14 451.145L1479.26 484.25C1479.88 485.333 1479.88 486.667 1479.26 487.75L1460.14 520.855C1459.52 521.938 1458.36 522.605 1457.11 522.605H1418.89C1417.64 522.605 1416.48 521.938 1415.86 520.855L1396.74 487.75Z" stroke="#5A43D2" stroke-width="3"/>
<path d="M1328.74 526.75C1328.12 525.667 1328.12 524.333 1328.74 523.25L1347.86 490.145C1348.48 489.062 1349.64 488.395 1350.89 488.395H1389.11C1390.36 488.395 1391.52 489.062 1392.14 490.145L1411.26 523.25C1411.88 524.333 1411.88 525.667 1411.26 526.75L1392.14 559.855C1391.52 560.938 1390.36 561.605 1389.11 561.605H1350.89C1349.64 561.605 1348.48 560.938 1347.86 559.855L1328.74 526.75Z" stroke="#5A43D2" stroke-width="3"/>
<path d="M1192.74 449.75C1192.12 448.667 1192.12 447.333 1192.74 446.25L1211.86 413.145C1212.48 412.062 1213.64 411.395 1214.89 411.395H1253.11C1254.36 411.395 1255.52 412.062 1256.14 413.145L1275.26 446.25C1275.88 447.333 1275.88 448.667 1275.26 449.75L1256.14 482.855C1255.52 483.938 1254.36 484.605 1253.11 484.605H1214.89C1213.64 484.605 1212.48 483.938 1211.86 482.855L1192.74 449.75Z" stroke="#5A43D2" stroke-width="3"/>
<path d="M1260.74 488.75C1260.12 487.667 1260.12 486.333 1260.74 485.25L1279.86 452.145C1280.48 451.062 1281.64 450.395 1282.89 450.395H1321.11C1322.36 450.395 1323.52 451.062 1324.14 452.145L1343.26 485.25C1343.88 486.333 1343.88 487.667 1343.26 488.75L1324.14 521.855C1323.52 522.938 1322.36 523.605 1321.11 523.605H1282.89C1281.64 523.605 1280.48 522.938 1279.86 521.855L1260.74 488.75Z" stroke="#5A43D2" stroke-width="3"/>
<path d="M1192.74 527.75C1192.12 526.667 1192.12 525.333 1192.74 524.25L1211.86 491.145C1212.48 490.062 1213.64 489.395 1214.89 489.395H1253.11C1254.36 489.395 1255.52 490.062 1256.14 491.145L1275.26 524.25C1275.88 525.333 1275.88 526.667 1275.26 527.75L1256.14 560.855C1255.52 561.938 1254.36 562.605 1253.11 562.605H1214.89C1213.64 562.605 1212.48 561.938 1211.86 560.855L1192.74 527.75Z" stroke="#5A43D2" stroke-width="3"/>
</g>
<g opacity="0.2">
<path d="M230.742 214.75C230.117 213.667 230.117 212.333 230.742 211.25L249.856 178.145C250.481 177.062 251.636 176.395 252.887 176.395L291.113 176.395C292.364 176.395 293.519 177.062 294.144 178.145L313.258 211.25C313.883 212.333 313.883 213.667 313.258 214.75L294.144 247.855C293.519 248.938 292.364 249.605 291.113 249.605L252.887 249.605C251.636 249.605 250.481 248.938 249.856 247.855L230.742 214.75Z" stroke="#5A43D2" stroke-width="3"/>
<path d="M298.742 253.75C298.117 252.667 298.117 251.333 298.742 250.25L317.856 217.145C318.481 216.062 319.636 215.395 320.887 215.395L359.113 215.395C360.364 215.395 361.519 216.062 362.144 217.145L381.258 250.25C381.883 251.333 381.883 252.667 381.258 253.75L362.144 286.855C361.519 287.938 360.364 288.605 359.113 288.605H320.887C319.636 288.605 318.481 287.938 317.856 286.855L298.742 253.75Z" stroke="#5A43D2" stroke-width="3"/>
<path d="M230.742 292.75C230.117 291.667 230.117 290.333 230.742 289.25L249.856 256.145C250.481 255.062 251.636 254.395 252.887 254.395L291.113 254.395C292.364 254.395 293.519 255.062 294.144 256.145L313.258 289.25C313.883 290.333 313.883 291.667 313.258 292.75L294.144 325.855C293.519 326.938 292.364 327.605 291.113 327.605H252.887C251.636 327.605 250.481 326.938 249.856 325.855L230.742 292.75Z" stroke="#5A43D2" stroke-width="3"/>
<path d="M298.742 331.75C298.117 330.667 298.117 329.333 298.742 328.25L317.856 295.145C318.481 294.062 319.636 293.395 320.887 293.395H359.113C360.364 293.395 361.519 294.062 362.144 295.145L381.258 328.25C381.883 329.333 381.883 330.667 381.258 331.75L362.144 364.855C361.519 365.938 360.364 366.605 359.113 366.605H320.887C319.636 366.605 318.481 365.938 317.856 364.855L298.742 331.75Z" stroke="#5A43D2" stroke-width="3"/>
<path d="M366.742 370.75C366.117 369.667 366.117 368.333 366.742 367.25L385.856 334.145C386.481 333.062 387.636 332.395 388.887 332.395H427.113C428.364 332.395 429.519 333.062 430.144 334.145L449.258 367.25C449.883 368.333 449.883 369.667 449.258 370.75L430.144 403.855C429.519 404.938 428.364 405.605 427.113 405.605H388.887C387.636 405.605 386.481 404.938 385.856 403.855L366.742 370.75Z" stroke="#5A43D2" stroke-width="3"/>
<path d="M298.742 409.75C298.117 408.667 298.117 407.333 298.742 406.25L317.856 373.145C318.481 372.062 319.636 371.395 320.887 371.395H359.113C360.364 371.395 361.519 372.062 362.144 373.145L381.258 406.25C381.883 407.333 381.883 408.667 381.258 409.75L362.144 442.855C361.519 443.938 360.364 444.605 359.113 444.605H320.887C319.636 444.605 318.481 443.938 317.856 442.855L298.742 409.75Z" stroke="#5A43D2" stroke-width="3"/>
<path d="M161.742 331.75C161.117 330.667 161.117 329.333 161.742 328.25L180.856 295.145C181.481 294.062 182.636 293.395 183.887 293.395H222.113C223.364 293.395 224.519 294.062 225.144 295.145L244.258 328.25C244.883 329.333 244.883 330.667 244.258 331.75L225.144 364.855C224.519 365.938 223.364 366.605 222.113 366.605H183.887C182.636 366.605 181.481 365.938 180.856 364.855L161.742 331.75Z" stroke="#5A43D2" stroke-width="3"/>
<path d="M229.742 370.75C229.117 369.667 229.117 368.333 229.742 367.25L248.856 334.145C249.481 333.062 250.636 332.395 251.887 332.395H290.113C291.364 332.395 292.519 333.062 293.144 334.145L312.258 367.25C312.883 368.333 312.883 369.667 312.258 370.75L293.144 403.855C292.519 404.938 291.364 405.605 290.113 405.605H251.887C250.636 405.605 249.481 404.938 248.856 403.855L229.742 370.75Z" stroke="#5A43D2" stroke-width="3"/>
<path d="M161.742 409.75C161.117 408.667 161.117 407.333 161.742 406.25L180.856 373.145C181.481 372.062 182.636 371.395 183.887 371.395H222.113C223.364 371.395 224.519 372.062 225.144 373.145L244.258 406.25C244.883 407.333 244.883 408.667 244.258 409.75L225.144 442.855C224.519 443.938 223.364 444.605 222.113 444.605H183.887C182.636 444.605 181.481 443.938 180.856 442.855L161.742 409.75Z" stroke="#5A43D2" stroke-width="3"/>
<path d="M367.742 214.75C367.117 213.667 367.117 212.333 367.742 211.25L386.856 178.145C387.481 177.062 388.636 176.395 389.887 176.395L428.113 176.395C429.364 176.395 430.519 177.062 431.144 178.145L450.258 211.25C450.883 212.333 450.883 213.667 450.258 214.75L431.144 247.855C430.519 248.938 429.364 249.605 428.113 249.605L389.887 249.605C388.636 249.605 387.481 248.938 386.856 247.855L367.742 214.75Z" stroke="#5A43D2" stroke-width="3"/>
<path d="M435.742 253.75C435.117 252.667 435.117 251.333 435.742 250.25L454.856 217.145C455.481 216.062 456.636 215.395 457.887 215.395L496.113 215.395C497.364 215.395 498.519 216.062 499.144 217.145L518.258 250.25C518.883 251.333 518.883 252.667 518.258 253.75L499.144 286.855C498.519 287.938 497.364 288.605 496.113 288.605H457.887C456.636 288.605 455.481 287.938 454.856 286.855L435.742 253.75Z" stroke="#5A43D2" stroke-width="3"/>
<path d="M367.742 292.75C367.117 291.667 367.117 290.333 367.742 289.25L386.856 256.145C387.481 255.062 388.636 254.395 389.887 254.395L428.113 254.395C429.364 254.395 430.519 255.062 431.144 256.145L450.258 289.25C450.883 290.333 450.883 291.667 450.258 292.75L431.144 325.855C430.519 326.938 429.364 327.605 428.113 327.605H389.887C388.636 327.605 387.481 326.938 386.856 325.855L367.742 292.75Z" stroke="#5A43D2" stroke-width="3"/>
<path d="M230.742 448.75C230.117 447.667 230.117 446.333 230.742 445.25L249.856 412.145C250.481 411.062 251.636 410.395 252.887 410.395H291.113C292.364 410.395 293.519 411.062 294.144 412.145L313.258 445.25C313.883 446.333 313.883 447.667 313.258 448.75L294.144 481.855C293.519 482.938 292.364 483.605 291.113 483.605H252.887C251.636 483.605 250.481 482.938 249.856 481.855L230.742 448.75Z" stroke="#5A43D2" stroke-width="3"/>
<path d="M298.742 487.75C298.117 486.667 298.117 485.333 298.742 484.25L317.856 451.145C318.481 450.062 319.636 449.395 320.887 449.395H359.113C360.364 449.395 361.519 450.062 362.144 451.145L381.258 484.25C381.883 485.333 381.883 486.667 381.258 487.75L362.144 520.855C361.519 521.938 360.364 522.605 359.113 522.605H320.887C319.636 522.605 318.481 521.938 317.856 520.855L298.742 487.75Z" stroke="#5A43D2" stroke-width="3"/>
<path d="M230.742 526.75C230.117 525.667 230.117 524.333 230.742 523.25L249.856 490.145C250.481 489.062 251.636 488.395 252.887 488.395H291.113C292.364 488.395 293.519 489.062 294.144 490.145L313.258 523.25C313.883 524.333 313.883 525.667 313.258 526.75L294.144 559.855C293.519 560.938 292.364 561.605 291.113 561.605H252.887C251.636 561.605 250.481 560.938 249.856 559.855L230.742 526.75Z" stroke="#5A43D2" stroke-width="3"/>
<path d="M94.7424 449.75C94.1172 448.667 94.1172 447.333 94.7424 446.25L113.856 413.145C114.481 412.062 115.636 411.395 116.887 411.395H155.113C156.364 411.395 157.519 412.062 158.144 413.145L177.258 446.25C177.883 447.333 177.883 448.667 177.258 449.75L158.144 482.855C157.519 483.938 156.364 484.605 155.113 484.605H116.887C115.636 484.605 114.481 483.938 113.856 482.855L94.7424 449.75Z" stroke="#5A43D2" stroke-width="3"/>
<path d="M162.742 488.75C162.117 487.667 162.117 486.333 162.742 485.25L181.856 452.145C182.481 451.062 183.636 450.395 184.887 450.395H223.113C224.364 450.395 225.519 451.062 226.144 452.145L245.258 485.25C245.883 486.333 245.883 487.667 245.258 488.75L226.144 521.855C225.519 522.938 224.364 523.605 223.113 523.605H184.887C183.636 523.605 182.481 522.938 181.856 521.855L162.742 488.75Z" stroke="#5A43D2" stroke-width="3"/>
<path d="M94.7424 527.75C94.1172 526.667 94.1172 525.333 94.7424 524.25L113.856 491.145C114.481 490.062 115.636 489.395 116.887 489.395H155.113C156.364 489.395 157.519 490.062 158.144 491.145L177.258 524.25C177.883 525.333 177.883 526.667 177.258 527.75L158.144 560.855C157.519 561.938 156.364 562.605 155.113 562.605H116.887C115.636 562.605 114.481 561.938 113.856 560.855L94.7424 527.75Z" stroke="#5A43D2" stroke-width="3"/>
</g>
<g opacity="0.2">
<path d="M-43.2576 214.75C-43.8828 213.667 -43.8828 212.333 -43.2576 211.25L-24.1443 178.145C-23.5191 177.062 -22.3637 176.395 -21.1132 176.395L17.1133 176.395C18.3637 176.395 19.5191 177.062 20.1443 178.145L39.2576 211.25C39.8828 212.333 39.8828 213.667 39.2576 214.75L20.1443 247.855C19.5191 248.938 18.3637 249.605 17.1133 249.605L-21.1132 249.605C-22.3637 249.605 -23.5191 248.938 -24.1443 247.855L-43.2576 214.75Z" stroke="#5A43D2" stroke-width="3"/>
<path d="M24.7424 253.75C24.1172 252.667 24.1172 251.333 24.7424 250.25L43.8557 217.145C44.4809 216.062 45.6363 215.395 46.8868 215.395L85.1133 215.395C86.3637 215.395 87.5191 216.062 88.1443 217.145L107.258 250.25C107.883 251.333 107.883 252.667 107.258 253.75L88.1443 286.855C87.5191 287.938 86.3637 288.605 85.1133 288.605H46.8868C45.6363 288.605 44.4809 287.938 43.8557 286.855L24.7424 253.75Z" stroke="#5A43D2" stroke-width="3"/>
<path d="M-43.2576 292.75C-43.8828 291.667 -43.8828 290.333 -43.2576 289.25L-24.1443 256.145C-23.5191 255.062 -22.3637 254.395 -21.1132 254.395L17.1133 254.395C18.3637 254.395 19.5191 255.062 20.1443 256.145L39.2576 289.25C39.8828 290.333 39.8828 291.667 39.2576 292.75L20.1443 325.855C19.5191 326.938 18.3637 327.605 17.1133 327.605H-21.1132C-22.3637 327.605 -23.5191 326.938 -24.1443 325.855L-43.2576 292.75Z" stroke="#5A43D2" stroke-width="3"/>
<path d="M24.7424 331.75C24.1172 330.667 24.1172 329.333 24.7424 328.25L43.8557 295.145C44.4809 294.062 45.6363 293.395 46.8868 293.395H85.1133C86.3637 293.395 87.5191 294.062 88.1443 295.145L107.258 328.25C107.883 329.333 107.883 330.667 107.258 331.75L88.1443 364.855C87.5191 365.938 86.3637 366.605 85.1133 366.605H46.8868C45.6363 366.605 44.4809 365.938 43.8557 364.855L24.7424 331.75Z" stroke="#5A43D2" stroke-width="3"/>
<path d="M92.7424 370.75C92.1172 369.667 92.1172 368.333 92.7424 367.25L111.856 334.145C112.481 333.062 113.636 332.395 114.887 332.395H153.113C154.364 332.395 155.519 333.062 156.144 334.145L175.258 367.25C175.883 368.333 175.883 369.667 175.258 370.75L156.144 403.855C155.519 404.938 154.364 405.605 153.113 405.605H114.887C113.636 405.605 112.481 404.938 111.856 403.855L92.7424 370.75Z" stroke="#5A43D2" stroke-width="3"/>
<path d="M24.7424 409.75C24.1172 408.667 24.1172 407.333 24.7424 406.25L43.8557 373.145C44.4809 372.062 45.6363 371.395 46.8868 371.395H85.1133C86.3637 371.395 87.5191 372.062 88.1443 373.145L107.258 406.25C107.883 407.333 107.883 408.667 107.258 409.75L88.1443 442.855C87.5191 443.938 86.3637 444.605 85.1133 444.605H46.8868C45.6363 444.605 44.4809 443.938 43.8557 442.855L24.7424 409.75Z" stroke="#5A43D2" stroke-width="3"/>
<path d="M-44.2576 370.75C-44.8828 369.667 -44.8828 368.333 -44.2576 367.25L-25.1443 334.145C-24.5191 333.062 -23.3637 332.395 -22.1132 332.395H16.1133C17.3637 332.395 18.5191 333.062 19.1443 334.145L38.2576 367.25C38.8828 368.333 38.8828 369.667 38.2576 370.75L19.1443 403.855C18.5191 404.938 17.3637 405.605 16.1133 405.605H-22.1132C-23.3637 405.605 -24.5191 404.938 -25.1443 403.855L-44.2576 370.75Z" stroke="#5A43D2" stroke-width="3"/>
<path d="M93.7424 214.75C93.1172 213.667 93.1172 212.333 93.7424 211.25L112.856 178.145C113.481 177.062 114.636 176.395 115.887 176.395L154.113 176.395C155.364 176.395 156.519 177.062 157.144 178.145L176.258 211.25C176.883 212.333 176.883 213.667 176.258 214.75L157.144 247.855C156.519 248.938 155.364 249.605 154.113 249.605L115.887 249.605C114.636 249.605 113.481 248.938 112.856 247.855L93.7424 214.75Z" stroke="#5A43D2" stroke-width="3"/>
<path d="M161.742 253.75C161.117 252.667 161.117 251.333 161.742 250.25L180.856 217.145C181.481 216.062 182.636 215.395 183.887 215.395L222.113 215.395C223.364 215.395 224.519 216.062 225.144 217.145L244.258 250.25C244.883 251.333 244.883 252.667 244.258 253.75L225.144 286.855C224.519 287.938 223.364 288.605 222.113 288.605H183.887C182.636 288.605 181.481 287.938 180.856 286.855L161.742 253.75Z" stroke="#5A43D2" stroke-width="3"/>
<path d="M93.7424 292.75C93.1172 291.667 93.1172 290.333 93.7424 289.25L112.856 256.145C113.481 255.062 114.636 254.395 115.887 254.395L154.113 254.395C155.364 254.395 156.519 255.062 157.144 256.145L176.258 289.25C176.883 290.333 176.883 291.667 176.258 292.75L157.144 325.855C156.519 326.938 155.364 327.605 154.113 327.605H115.887C114.636 327.605 113.481 326.938 112.856 325.855L93.7424 292.75Z" stroke="#5A43D2" stroke-width="3"/>
<path d="M-43.2576 448.75C-43.8828 447.667 -43.8828 446.333 -43.2576 445.25L-24.1443 412.145C-23.5191 411.062 -22.3637 410.395 -21.1132 410.395H17.1133C18.3637 410.395 19.5191 411.062 20.1443 412.145L39.2576 445.25C39.8828 446.333 39.8828 447.667 39.2576 448.75L20.1443 481.855C19.5191 482.938 18.3637 483.605 17.1133 483.605H-21.1132C-22.3637 483.605 -23.5191 482.938 -24.1443 481.855L-43.2576 448.75Z" stroke="#5A43D2" stroke-width="3"/>
<path d="M24.7424 487.75C24.1172 486.667 24.1172 485.333 24.7424 484.25L43.8557 451.145C44.4809 450.062 45.6363 449.395 46.8868 449.395H85.1133C86.3637 449.395 87.5191 450.062 88.1443 451.145L107.258 484.25C107.883 485.333 107.883 486.667 107.258 487.75L88.1443 520.855C87.5191 521.938 86.3637 522.605 85.1133 522.605H46.8868C45.6363 522.605 44.4809 521.938 43.8557 520.855L24.7424 487.75Z" stroke="#5A43D2" stroke-width="3"/>
<path d="M-43.2576 526.75C-43.8828 525.667 -43.8828 524.333 -43.2576 523.25L-24.1443 490.145C-23.5191 489.062 -22.3637 488.395 -21.1132 488.395H17.1133C18.3637 488.395 19.5191 489.062 20.1443 490.145L39.2576 523.25C39.8828 524.333 39.8828 525.667 39.2576 526.75L20.1443 559.855C19.5191 560.938 18.3637 561.605 17.1133 561.605H-21.1132C-22.3637 561.605 -23.5191 560.938 -24.1443 559.855L-43.2576 526.75Z" stroke="#5A43D2" stroke-width="3"/>
</g>
<g opacity="0.2">
<path d="M505.742 214.75C505.117 213.667 505.117 212.333 505.742 211.25L524.856 178.145C525.481 177.062 526.636 176.395 527.887 176.395L566.113 176.395C567.364 176.395 568.519 177.062 569.144 178.145L588.258 211.25C588.883 212.333 588.883 213.667 588.258 214.75L569.144 247.855C568.519 248.938 567.364 249.605 566.113 249.605L527.887 249.605C526.636 249.605 525.481 248.938 524.856 247.855L505.742 214.75Z" stroke="#5A43D2" stroke-width="3"/>
<path d="M573.742 253.75C573.117 252.667 573.117 251.333 573.742 250.25L592.856 217.145C593.481 216.062 594.636 215.395 595.887 215.395L634.113 215.395C635.364 215.395 636.519 216.062 637.144 217.145L656.258 250.25C656.883 251.333 656.883 252.667 656.258 253.75L637.144 286.855C636.519 287.938 635.364 288.605 634.113 288.605H595.887C594.636 288.605 593.481 287.938 592.856 286.855L573.742 253.75Z" stroke="#5A43D2" stroke-width="3"/>
<path d="M505.742 292.75C505.117 291.667 505.117 290.333 505.742 289.25L524.856 256.145C525.481 255.062 526.636 254.395 527.887 254.395L566.113 254.395C567.364 254.395 568.519 255.062 569.144 256.145L588.258 289.25C588.883 290.333 588.883 291.667 588.258 292.75L569.144 325.855C568.519 326.938 567.364 327.605 566.113 327.605H527.887C526.636 327.605 525.481 326.938 524.856 325.855L505.742 292.75Z" stroke="#5A43D2" stroke-width="3"/>
<path d="M573.742 331.75C573.117 330.667 573.117 329.333 573.742 328.25L592.856 295.145C593.481 294.062 594.636 293.395 595.887 293.395H634.113C635.364 293.395 636.519 294.062 637.144 295.145L656.258 328.25C656.883 329.333 656.883 330.667 656.258 331.75L637.144 364.855C636.519 365.938 635.364 366.605 634.113 366.605H595.887C594.636 366.605 593.481 365.938 592.856 364.855L573.742 331.75Z" stroke="#5A43D2" stroke-width="3"/>
<path d="M641.742 370.75C641.117 369.667 641.117 368.333 641.742 367.25L660.856 334.145C661.481 333.062 662.636 332.395 663.887 332.395H702.113C703.364 332.395 704.519 333.062 705.144 334.145L724.258 367.25C724.883 368.333 724.883 369.667 724.258 370.75L705.144 403.855C704.519 404.938 703.364 405.605 702.113 405.605H663.887C662.636 405.605 661.481 404.938 660.856 403.855L641.742 370.75Z" stroke="#5A43D2" stroke-width="3"/>
<path d="M573.742 409.75C573.117 408.667 573.117 407.333 573.742 406.25L592.856 373.145C593.481 372.062 594.636 371.395 595.887 371.395H634.113C635.364 371.395 636.519 372.062 637.144 373.145L656.258 406.25C656.883 407.333 656.883 408.667 656.258 409.75L637.144 442.855C636.519 443.938 635.364 444.605 634.113 444.605H595.887C594.636 444.605 593.481 443.938 592.856 442.855L573.742 409.75Z" stroke="#5A43D2" stroke-width="3"/>
<path d="M436.742 331.75C436.117 330.667 436.117 329.333 436.742 328.25L455.856 295.145C456.481 294.062 457.636 293.395 458.887 293.395H497.113C498.364 293.395 499.519 294.062 500.144 295.145L519.258 328.25C519.883 329.333 519.883 330.667 519.258 331.75L500.144 364.855C499.519 365.938 498.364 366.605 497.113 366.605H458.887C457.636 366.605 456.481 365.938 455.856 364.855L436.742 331.75Z" stroke="#5A43D2" stroke-width="3"/>
<path d="M504.742 370.75C504.117 369.667 504.117 368.333 504.742 367.25L523.856 334.145C524.481 333.062 525.636 332.395 526.887 332.395H565.113C566.364 332.395 567.519 333.062 568.144 334.145L587.258 367.25C587.883 368.333 587.883 369.667 587.258 370.75L568.144 403.855C567.519 404.938 566.364 405.605 565.113 405.605H526.887C525.636 405.605 524.481 404.938 523.856 403.855L504.742 370.75Z" stroke="#5A43D2" stroke-width="3"/>
<path d="M436.742 409.75C436.117 408.667 436.117 407.333 436.742 406.25L455.856 373.145C456.481 372.062 457.636 371.395 458.887 371.395H497.113C498.364 371.395 499.519 372.062 500.144 373.145L519.258 406.25C519.883 407.333 519.883 408.667 519.258 409.75L500.144 442.855C499.519 443.938 498.364 444.605 497.113 444.605H458.887C457.636 444.605 456.481 443.938 455.856 442.855L436.742 409.75Z" stroke="#5A43D2" stroke-width="3"/>
<path d="M642.742 214.75C642.117 213.667 642.117 212.333 642.742 211.25L661.856 178.145C662.481 177.062 663.636 176.395 664.887 176.395L703.113 176.395C704.364 176.395 705.519 177.062 706.144 178.145L725.258 211.25C725.883 212.333 725.883 213.667 725.258 214.75L706.144 247.855C705.519 248.938 704.364 249.605 703.113 249.605L664.887 249.605C663.636 249.605 662.481 248.938 661.856 247.855L642.742 214.75Z" stroke="#5A43D2" stroke-width="3"/>
<path d="M710.742 253.75C710.117 252.667 710.117 251.333 710.742 250.25L729.856 217.145C730.481 216.062 731.636 215.395 732.887 215.395L771.113 215.395C772.364 215.395 773.519 216.062 774.144 217.145L793.258 250.25C793.883 251.333 793.883 252.667 793.258 253.75L774.144 286.855C773.519 287.938 772.364 288.605 771.113 288.605H732.887C731.636 288.605 730.481 287.938 729.856 286.855L710.742 253.75Z" stroke="#5A43D2" stroke-width="3"/>
<path d="M642.742 292.75C642.117 291.667 642.117 290.333 642.742 289.25L661.856 256.145C662.481 255.062 663.636 254.395 664.887 254.395L703.113 254.395C704.364 254.395 705.519 255.062 706.144 256.145L725.258 289.25C725.883 290.333 725.883 291.667 725.258 292.75L706.144 325.855C705.519 326.938 704.364 327.605 703.113 327.605H664.887C663.636 327.605 662.481 326.938 661.856 325.855L642.742 292.75Z" stroke="#5A43D2" stroke-width="3"/>
<path d="M505.742 448.75C505.117 447.667 505.117 446.333 505.742 445.25L524.856 412.145C525.481 411.062 526.636 410.395 527.887 410.395H566.113C567.364 410.395 568.519 411.062 569.144 412.145L588.258 445.25C588.883 446.333 588.883 447.667 588.258 448.75L569.144 481.855C568.519 482.938 567.364 483.605 566.113 483.605H527.887C526.636 483.605 525.481 482.938 524.856 481.855L505.742 448.75Z" stroke="#5A43D2" stroke-width="3"/>
<path d="M573.742 487.75C573.117 486.667 573.117 485.333 573.742 484.25L592.856 451.145C593.481 450.062 594.636 449.395 595.887 449.395H634.113C635.364 449.395 636.519 450.062 637.144 451.145L656.258 484.25C656.883 485.333 656.883 486.667 656.258 487.75L637.144 520.855C636.519 521.938 635.364 522.605 634.113 522.605H595.887C594.636 522.605 593.481 521.938 592.856 520.855L573.742 487.75Z" stroke="#5A43D2" stroke-width="3"/>
<path d="M505.742 526.75C505.117 525.667 505.117 524.333 505.742 523.25L524.856 490.145C525.481 489.062 526.636 488.395 527.887 488.395H566.113C567.364 488.395 568.519 489.062 569.144 490.145L588.258 523.25C588.883 524.333 588.883 525.667 588.258 526.75L569.144 559.855C568.519 560.938 567.364 561.605 566.113 561.605H527.887C526.636 561.605 525.481 560.938 524.856 559.855L505.742 526.75Z" stroke="#5A43D2" stroke-width="3"/>
<path d="M369.742 449.75C369.117 448.667 369.117 447.333 369.742 446.25L388.856 413.145C389.481 412.062 390.636 411.395 391.887 411.395H430.113C431.364 411.395 432.519 412.062 433.144 413.145L452.258 446.25C452.883 447.333 452.883 448.667 452.258 449.75L433.144 482.855C432.519 483.938 431.364 484.605 430.113 484.605H391.887C390.636 484.605 389.481 483.938 388.856 482.855L369.742 449.75Z" stroke="#5A43D2" stroke-width="3"/>
<path d="M437.742 488.75C437.117 487.667 437.117 486.333 437.742 485.25L456.856 452.145C457.481 451.062 458.636 450.395 459.887 450.395H498.113C499.364 450.395 500.519 451.062 501.144 452.145L520.258 485.25C520.883 486.333 520.883 487.667 520.258 488.75L501.144 521.855C500.519 522.938 499.364 523.605 498.113 523.605H459.887C458.636 523.605 457.481 522.938 456.856 521.855L437.742 488.75Z" stroke="#5A43D2" stroke-width="3"/>
<path d="M369.742 527.75C369.117 526.667 369.117 525.333 369.742 524.25L388.856 491.145C389.481 490.062 390.636 489.395 391.887 489.395H430.113C431.364 489.395 432.519 490.062 433.144 491.145L452.258 524.25C452.883 525.333 452.883 526.667 452.258 527.75L433.144 560.855C432.519 561.938 431.364 562.605 430.113 562.605H391.887C390.636 562.605 389.481 561.938 388.856 560.855L369.742 527.75Z" stroke="#5A43D2" stroke-width="3"/>
</g>
</g>
</svg>
