<svg width="71" height="20" viewBox="0 0 71 20" fill="none" xmlns="http://www.w3.org/2000/svg">
<path d="M0.721591 19V1.54545H7.40341C8.66477 1.54545 9.71307 1.74432 10.5483 2.14204C11.3892 2.53409 12.017 3.07102 12.4318 3.75284C12.8523 4.43466 13.0625 5.20739 13.0625 6.07102C13.0625 6.78125 12.9261 7.3892 12.6534 7.89489C12.3807 8.39489 12.0142 8.80114 11.554 9.11364C11.0938 9.42614 10.5795 9.65057 10.0114 9.78693V9.95739C10.6307 9.99148 11.2244 10.1818 11.7926 10.5284C12.3665 10.8693 12.8352 11.3523 13.1989 11.9773C13.5625 12.6023 13.7443 13.358 13.7443 14.2443C13.7443 15.1477 13.5256 15.9602 13.0881 16.6818C12.6506 17.3977 11.9915 17.9631 11.1108 18.3778C10.2301 18.7926 9.12216 19 7.78693 19H0.721591ZM3.88352 16.358H7.28409C8.43182 16.358 9.25852 16.1392 9.7642 15.7017C10.2756 15.2585 10.5312 14.6903 10.5312 13.9972C10.5312 13.4801 10.4034 13.0142 10.1477 12.5994C9.89205 12.179 9.52841 11.8494 9.05682 11.6108C8.58523 11.3665 8.02273 11.2443 7.36932 11.2443H3.88352V16.358ZM3.88352 8.96875H7.01136C7.55682 8.96875 8.0483 8.86932 8.4858 8.67045C8.9233 8.46591 9.26705 8.17898 9.51705 7.80966C9.77273 7.43466 9.90057 6.99148 9.90057 6.48011C9.90057 5.80398 9.66193 5.24716 9.18466 4.80966C8.71307 4.37216 8.01136 4.15341 7.07955 4.15341H3.88352V8.96875ZM24.7024 13.4943V5.90909H27.7876V19H24.7962V16.6733H24.6598C24.3643 17.4062 23.8786 18.0057 23.2024 18.4716C22.532 18.9375 21.7053 19.1705 20.7223 19.1705C19.8643 19.1705 19.1058 18.9801 18.4467 18.5994C17.7933 18.2131 17.282 17.6534 16.9126 16.9205C16.5433 16.1818 16.3587 15.2898 16.3587 14.2443V5.90909H19.4439V13.767C19.4439 14.5966 19.6712 15.2557 20.1257 15.7443C20.5803 16.233 21.1768 16.4773 21.9155 16.4773C22.37 16.4773 22.8104 16.3665 23.2365 16.1449C23.6626 15.9233 24.0121 15.5938 24.2848 15.1562C24.5632 14.7131 24.7024 14.1591 24.7024 13.4943ZM30.9602 19V5.90909H34.0455V19H30.9602ZM32.5114 4.05114C32.0227 4.05114 31.6023 3.8892 31.25 3.56534C30.8977 3.23579 30.7216 2.84091 30.7216 2.38068C30.7216 1.91477 30.8977 1.51989 31.25 1.19602C31.6023 0.866477 32.0227 0.701704 32.5114 0.701704C33.0057 0.701704 33.4261 0.866477 33.7727 1.19602C34.125 1.51989 34.3011 1.91477 34.3011 2.38068C34.3011 2.84091 34.125 3.23579 33.7727 3.56534C33.4261 3.8892 33.0057 4.05114 32.5114 4.05114ZM42.076 19.2301C41.0476 19.2301 40.1271 18.9659 39.3146 18.4375C38.5021 17.9091 37.8601 17.142 37.3885 16.1364C36.9169 15.1307 36.6811 13.9091 36.6811 12.4716C36.6811 11.017 36.9197 9.78977 37.397 8.78977C37.88 7.78409 38.5305 7.02557 39.3487 6.5142C40.1669 5.99716 41.0788 5.73864 42.0845 5.73864C42.8516 5.73864 43.4822 5.86932 43.9766 6.13068C44.4709 6.38636 44.8629 6.69602 45.1527 7.05966C45.4425 7.41761 45.6669 7.75568 45.826 8.07386H45.9538V1.54545H49.0476V19H46.0135V16.9375H45.826C45.6669 17.2557 45.4368 17.5937 45.1357 17.9517C44.8345 18.304 44.4368 18.6051 43.9425 18.8551C43.4482 19.1051 42.826 19.2301 42.076 19.2301ZM42.9368 16.6989C43.5902 16.6989 44.147 16.5227 44.6072 16.1705C45.0675 15.8125 45.4169 15.3153 45.6555 14.679C45.8942 14.0426 46.0135 13.3011 46.0135 12.4545C46.0135 11.608 45.8942 10.8722 45.6555 10.2472C45.4226 9.62216 45.076 9.13636 44.6158 8.78977C44.1612 8.44318 43.6016 8.26989 42.9368 8.26989C42.2493 8.26989 41.6754 8.44886 41.2152 8.80682C40.755 9.16477 40.4084 9.65909 40.1754 10.2898C39.9425 10.9205 39.826 11.642 39.826 12.4545C39.826 13.2727 39.9425 14.0028 40.1754 14.6449C40.4141 15.2812 40.7635 15.7841 41.2237 16.1534C41.6896 16.517 42.2607 16.6989 42.9368 16.6989ZM55.4205 1.54545V19H52.3352V1.54545H55.4205ZM64.3885 19.2557C63.076 19.2557 61.9425 18.983 60.9879 18.4375C60.0391 17.8864 59.3089 17.108 58.7976 16.1023C58.2862 15.0909 58.0305 13.9006 58.0305 12.5312C58.0305 11.1847 58.2862 10.0028 58.7976 8.9858C59.3146 7.96307 60.0362 7.16761 60.9624 6.59943C61.8885 6.02557 62.9766 5.73864 64.2266 5.73864C65.0334 5.73864 65.7947 5.86932 66.5107 6.13068C67.2322 6.38636 67.8686 6.78409 68.4197 7.32386C68.9766 7.86364 69.4141 8.55114 69.7322 9.38636C70.0504 10.2159 70.2095 11.2045 70.2095 12.3523V13.2983H59.4794V11.2188H67.2521C67.2464 10.6278 67.1186 10.1023 66.8686 9.64205C66.6186 9.17614 66.2692 8.80966 65.8203 8.54261C65.3771 8.27557 64.8601 8.14205 64.2692 8.14205C63.6385 8.14205 63.0845 8.29545 62.6072 8.60227C62.13 8.90341 61.7578 9.30114 61.4908 9.79545C61.2294 10.2841 61.0959 10.821 61.0902 11.4062V13.2216C61.0902 13.983 61.2294 14.6364 61.5078 15.1818C61.7862 15.7216 62.1754 16.1364 62.6754 16.4261C63.1754 16.7102 63.7607 16.8523 64.4311 16.8523C64.88 16.8523 65.2862 16.7898 65.6499 16.6648C66.0135 16.5341 66.3288 16.3438 66.5959 16.0938C66.8629 15.8438 67.0646 15.5341 67.201 15.1648L70.0817 15.4886C69.8999 16.25 69.5533 16.9148 69.0419 17.483C68.5362 18.0455 67.8885 18.483 67.0987 18.7955C66.3089 19.1023 65.4055 19.2557 64.3885 19.2557Z" fill="white"/>
</svg>
