<svg width="74" height="74" viewBox="0 0 74 74" fill="none" xmlns="http://www.w3.org/2000/svg">
<g style="mix-blend-mode:luminosity">
<path d="M36.5586 73.1173C56.7494 73.1173 73.1173 56.7494 73.1173 36.5586C73.1173 16.3679 56.7494 0 36.5586 0C16.3679 0 0 16.3679 0 36.5586C0 56.7494 16.3679 73.1173 36.5586 73.1173Z" fill="url(#paint0_linear_142_529)"/>
<path opacity="0.5" d="M33.8622 60.844C44.8339 60.844 53.7282 51.7521 53.7282 40.5365C53.7282 29.321 44.8339 20.229 33.8622 20.229C22.8904 20.229 13.9961 29.321 13.9961 40.5365C13.9961 51.7521 22.8904 60.844 33.8622 60.844Z" fill="white"/>
<path opacity="0.748" d="M39.159 52.8968C50.1308 52.8968 59.0251 43.8048 59.0251 32.5893C59.0251 21.3737 50.1308 12.2817 39.159 12.2817C28.1873 12.2817 19.293 21.3737 19.293 32.5893C19.293 43.8048 28.1873 52.8968 39.159 52.8968Z" fill="white"/>
</g>
<defs>
<linearGradient id="paint0_linear_142_529" x1="73.1173" y1="36.5586" x2="0" y2="36.5586" gradientUnits="userSpaceOnUse">
<stop stop-color="#B78FFF"/>
<stop offset="1" stop-color="#966FDB"/>
</linearGradient>
</defs>
</svg>
