<svg width="74" height="74" viewBox="0 0 74 74" fill="none" xmlns="http://www.w3.org/2000/svg">
<g style="mix-blend-mode:luminosity" clip-path="url(#clip0_142_526)">
<path d="M36.4878 72.742C56.5757 72.742 72.8599 56.4585 72.8599 36.3714C72.8592 16.2835 56.5749 0 36.4871 0C16.4015 0 0.117188 16.2843 0.117188 36.3706C0.117188 56.4585 16.4015 72.7428 36.4878 72.7428V72.742Z" fill="#032343"/>
<path fill-rule="evenodd" clip-rule="evenodd" d="M35.0005 4.45264C28.5669 4.70034 21.8871 7.17439 17.0621 11.0093C15.7012 12.1232 14.5881 13.1133 13.351 14.3496L12.9795 14.7211L11.7425 16.2059C10.7531 17.319 9.76307 18.9269 8.89686 20.4116C7.16592 23.5042 5.8043 26.7213 5.18578 30.6793C4.56727 33.8965 4.56727 37.1129 4.93808 40.3293C5.06193 41.4425 5.18578 42.4326 5.8043 43.0511C6.54666 43.6696 7.53673 43.6696 8.27835 43.0511C9.14456 42.1849 8.77375 41.4425 8.6499 40.3293C7.78443 34.0196 9.02071 28.3291 11.7425 22.8856C12.8556 20.6593 15.0827 17.6898 17.0621 15.9582C18.1753 14.9681 18.67 14.4734 19.9077 13.608C25.4743 9.64844 31.9072 7.66905 38.9593 8.28831C42.918 8.65912 46.753 9.89614 49.7217 11.504C52.4434 12.9887 53.3096 13.7311 55.4121 15.4635L55.9075 15.9582C56.2784 16.2059 56.5261 16.4528 56.773 16.8236L57.2684 17.319C57.6392 17.6898 58.8763 19.2984 59.2478 19.6692C59.4948 20.0408 59.7425 20.2885 59.9902 20.6593C60.2371 21.0301 60.361 21.4017 60.7318 21.6486C61.598 22.2679 62.7112 21.8963 63.2066 21.2778C63.949 20.4123 63.4535 19.4223 62.9589 18.6799C60.9795 15.7105 58.7524 13.4841 56.1545 11.3809C50.9587 7.29824 43.7842 4.32953 35.0005 4.57649V4.45264ZM8.03139 45.4013C5.55734 45.8959 6.42281 49.6078 8.77375 49.1124C9.63922 48.8654 10.5054 47.9992 10.2585 46.886C10.0108 46.0198 9.14456 45.2774 8.03139 45.4013ZM63.949 23.5042C61.4742 23.9996 62.0927 27.7106 64.5667 27.216C66.9169 26.7213 66.2992 23.1333 63.949 23.5042ZM32.5257 43.7927L33.6396 46.7622C33.7634 47.2568 32.4026 49.6078 32.7734 52.4526C32.8972 53.4427 33.1442 53.8135 33.5157 54.432C35.619 57.5246 40.0724 57.5246 42.2995 54.3082C43.9074 51.8341 43.2888 49.4839 41.3095 47.6284C40.9386 47.2568 41.0617 47.3807 40.8148 46.7622C40.547 46.1102 40.2994 45.4501 40.0724 44.7828C39.9486 44.4112 39.4532 43.0511 39.3301 42.8034L37.9692 39.0923L50.7117 34.2673L47.2476 32.6587C46.0291 32.1746 44.832 31.6381 43.6596 31.0509C43.2888 30.9271 42.1749 30.3085 41.9287 30.3085C41.4333 30.4324 40.5671 30.8032 40.0724 31.0509L32.6495 33.8958C31.4125 34.3912 29.9278 34.762 29.9278 36.246C29.9278 37.236 30.794 39.2154 31.1648 40.0816C31.6602 41.3187 32.1549 42.5557 32.5257 43.7927ZM30.9178 27.3398L49.7217 20.1646C49.5978 19.9169 44.1551 17.1952 43.2888 16.7005C43.165 16.5767 42.0518 16.0813 41.928 15.9582C41.6803 15.8343 26.8352 21.6486 24.6089 22.5148C23.4949 22.8856 22.7526 23.2572 22.3818 24.2465C22.011 25.112 21.8871 26.7213 21.8871 27.8345C21.8871 29.0715 22.1341 30.1847 22.6295 31.0502C23.0003 31.6694 23.9896 32.4118 24.9797 32.7826C26.0929 33.1541 27.3299 33.0303 28.3199 32.6587C30.2993 31.7933 31.4125 29.4431 30.9178 27.4629V27.3398ZM63.3297 44.0404C62.3404 47.7515 60.6087 50.9686 58.6293 53.4427L57.3915 54.9274C57.2684 55.0505 57.1446 55.1744 57.0207 55.4221C56.6499 55.7929 56.5261 56.0406 56.1553 56.2875L54.299 58.02C54.052 58.2669 53.6805 58.5146 53.3096 58.7623C49.7217 61.3602 46.1344 63.2158 41.1856 64.082C32.5257 65.6898 24.6089 62.9681 19.2892 58.8854C18.0514 57.8961 16.0728 56.1644 15.2066 55.0505C15.0827 54.9267 14.9589 54.6797 14.835 54.5559C13.9696 53.4427 13.4749 52.8242 12.6087 51.5864C11.2478 49.4839 8.52605 51.0917 9.26841 53.0711C9.63922 53.9373 11.4955 56.4114 12.2379 57.1538C12.4848 57.4015 12.8556 57.8961 13.1033 58.1431C13.4749 58.3908 13.598 58.7623 13.9688 59.0093C18.2991 63.3396 23.7427 66.3083 29.9278 67.5454C38.34 69.2778 46.506 67.4215 52.8142 63.7104C61.9688 58.2669 68.0308 48.3707 68.2785 37.1122C68.2785 35.6274 68.1547 31.9171 67.7839 30.6793C67.0415 28.7007 63.8251 29.1946 63.949 31.0509C64.1959 34.0204 64.8144 38.5969 63.3297 44.0404Z" fill="url(#paint0_linear_142_526)"/>
</g>
<defs>
<linearGradient id="paint0_linear_142_526" x1="49.227" y1="63.0919" x2="28.0723" y2="7.54594" gradientUnits="userSpaceOnUse">
<stop stop-color="#77BE4D"/>
<stop offset="1" stop-color="#07C9EB"/>
</linearGradient>
<clipPath id="clip0_142_526">
<rect width="73.1173" height="73.1173" fill="white" transform="translate(0.117188)"/>
</clipPath>
</defs>
</svg>
