<svg width="244" height="56" viewBox="0 0 244 56" fill="none" xmlns="http://www.w3.org/2000/svg">
<g style="mix-blend-mode:luminosity" clip-path="url(#clip0_142_536)">
<path d="M144.719 17.9987V54.6278H134.097V49.2783C133.012 51.1369 131.438 52.662 129.546 53.6872C127.588 54.7173 125.403 55.2393 123.191 55.2052C118.615 55.2052 115.195 53.9281 112.931 51.3738C110.668 48.8195 109.538 44.9663 109.543 39.8142V17.9987H120.438V40.0321C120.438 44.4627 122.34 46.678 126.143 46.678C128.405 46.678 130.235 45.9081 131.635 44.3683C133.034 42.8285 133.732 40.8056 133.73 38.2998V17.9987H144.719ZM186.375 1.29297V54.6278H175.611V49.2093C174.495 51.0924 172.868 52.6201 170.918 53.6146C168.795 54.6987 166.438 55.2449 164.055 55.2052C161.079 55.2543 158.157 54.4106 155.665 52.7829C153.152 51.1029 151.162 48.7494 149.924 45.9917C148.551 43.0863 147.865 39.7512 147.865 35.9864C147.865 32.2215 148.551 28.9107 149.924 26.0537C151.16 23.3445 153.138 21.0405 155.629 19.4078C158.147 17.8199 161.075 17.0054 164.051 17.0653C166.383 17.0367 168.687 17.5698 170.77 18.6197C172.709 19.5796 174.337 21.0692 175.465 22.916V1.29297H186.375ZM173.461 44.1141C174.913 42.2619 175.64 39.5987 175.64 36.1244C175.64 32.7034 174.905 30.0668 173.435 28.2146C171.966 26.3624 169.908 25.4352 167.261 25.4327C164.562 25.4327 162.466 26.3479 160.975 28.1783C159.483 30.0086 158.738 32.6089 158.738 35.9791C158.738 39.4462 159.483 42.1312 160.975 44.0342C162.466 45.9372 164.562 46.8887 167.261 46.8887C169.942 46.8935 172.008 45.9687 173.461 44.1141ZM228.03 17.9987V54.6278H217.262V49.2093C216.147 51.0937 214.518 52.6216 212.566 53.6146C210.444 54.6958 208.088 55.2395 205.706 55.198C202.733 55.2784 199.802 54.473 197.288 52.8842C194.773 51.2954 192.787 48.9949 191.583 46.2749C190.21 43.4107 189.524 40.0999 189.524 36.3423C189.524 32.5847 190.21 29.2363 191.583 26.2971C192.814 23.5262 194.805 21.1604 197.324 19.4731C199.815 17.852 202.735 17.0134 205.706 17.0653C208.097 17.027 210.459 17.5995 212.566 18.7287C214.512 19.7628 216.137 21.3118 217.262 23.2065V17.9987H228.03ZM215.098 44.1468C216.55 42.3164 217.277 39.6677 217.277 36.2007C217.277 32.7336 216.55 30.0704 215.098 28.211C213.645 26.354 211.574 25.4267 208.884 25.4291C206.194 25.4315 204.099 26.3963 202.598 28.3235C201.106 30.2604 200.359 32.9346 200.357 36.3459C200.354 39.7573 201.089 42.3697 202.561 44.1831C204.031 45.9868 206.138 46.8899 208.884 46.8923C211.579 46.8947 213.65 45.9808 215.098 44.1504V44.1468ZM107.324 55.1435H93.7889L79.2258 38.5358V55.1435H68.1783V1.29297H79.2258V33.9962L93.1279 18.1222H106.373L90.6402 35.9174L107.324 55.1435ZM37.9119 55.1616L16.7101 30.7568L28.2879 55.1616H20.2619L8.4517 30.281L13.3617 55.1616H8.42991L3.51625 30.2447V55.1616H1.58057V1.29297H3.51625V28.1674L8.49891 1.29297H13.4162L8.41175 28.2836L20.4508 1.29297H28.3896L16.3978 28.1855L38.1733 1.29297H50.6155L28.0918 29.1152L50.7208 55.1616H37.9119Z" fill="#41276D"/>
<path d="M237.178 54.5692C240.482 54.5692 243.16 51.8912 243.16 48.5878C243.16 45.2844 240.482 42.6064 237.178 42.6064C233.875 42.6064 231.197 45.2844 231.197 48.5878C231.197 51.8912 233.875 54.5692 237.178 54.5692Z" fill="#41276D"/>
</g>
<defs>
<clipPath id="clip0_142_536">
<rect width="242.56" height="55.0345" fill="white" transform="translate(0.918945 0.647949)"/>
</clipPath>
</defs>
</svg>
